PathFileType	4	(X/Y/Z)	 s06c0102.trc
DataRate	CameraRate	NumFrames	NumMarkers	Units	OrigDataRate	OrigDataStartFrame	OrigNumFrames
200	200	6	48	mm	200	751	2000
Frame#	Time	racr			lacr			c7			jug			rlel			rdr			llel			ldr			s2			lic			ric			lasi			rasi			rpsi			lpsi			rgt			lgt			rth1			rth2			rth3			rth4			rlfc			rmfc			rsh1			rsh2			rsh3			rsh4			rlmal			rcal			rtoe			rmt5			lth1			lth2			lth4			lth3			llfc			lmfc			llmal			lcal			lmt5			lsh1			lsh2			lsh3			lsh4			ltoe			SBIKE			LBIKE			RBIKE			
		X1	Y1	Z1	X2	Y2	Z2	X3	Y3	Z3	X4	Y4	Z4	X5	Y5	Z5	X6	Y6	Z6	X7	Y7	Z7	X8	Y8	Z8	X9	Y9	Z9	X10	Y10	Z10	X11	Y11	Z11	X12	Y12	Z12	X13	Y13	Z13	X14	Y14	Z14	X15	Y15	Z15	X16	Y16	Z16	X17	Y17	Z17	X18	Y18	Z18	X19	Y19	Z19	X20	Y20	Z20	X21	Y21	Z21	X22	Y22	Z22	X23	Y23	Z23	X24	Y24	Z24	X25	Y25	Z25	X26	Y26	Z26	X27	Y27	Z27	X28	Y28	Z28	X29	Y29	Z29	X30	Y30	Z30	X31	Y31	Z31	X32	Y32	Z32	X33	Y33	Z33	X34	Y34	Z34	X35	Y35	Z35	X36	Y36	Z36	X37	Y37	Z37	X38	Y38	Z38	X39	Y39	Z39	X40	Y40	Z40	X41	Y41	Z41	X42	Y42	Z42	X43	Y43	Z43	X44	Y44	Z44	X45	Y45	Z45	X46	Y46	Z46	X47	Y47	Z47	X48	Y48	Z48	
751	3.7550	510.728919	1295.344782	-51.012195	528.097104	1288.850789	-341.557368	505.566341	1364.634043	-197.461543	494.814280	1197.763947	-194.215271	533.471305	1054.530906	63.431395	717.211245	926.425889	-35.937557	500.178078	1038.439150	-450.025853	707.667708	931.723161	-393.428610	-31.678175	1152.385981	-214.169891	139.062386	1130.099022	-378.599772	100.387082	1139.527328	-52.239450	160.134143	1078.800747	-343.392511	133.247067	1097.725473	-85.084769	-3.656392	1196.039614	-192.051536	-3.096688	1187.607628	-252.562794	91.936464	1081.412048	-14.051309	105.207964	1041.324329	-409.401836	202.529542	1036.227414	-8.411904	292.350876	1021.292765	-13.121721	359.796496	966.707913	-11.851559	303.129255	1050.654398	-34.874071	425.797311	886.426365	-36.332697	416.698148	864.413529	-149.652656	351.572671	786.912983	-19.907853	304.879511	717.952770	-43.695164	228.576625	674.098461	-48.263449	322.377995	705.202054	-78.715067	158.369841	626.703240	-57.585110	94.968693	643.949188	-108.673667	274.518007	434.169043	-94.197241	190.473833	492.196125	-30.560214	131.459770	913.412100	-428.356697	184.753658	844.499714	-424.223492	218.181426	858.585233	-416.412536	196.398709	756.204627	-417.184180	220.231685	637.702814	-398.586443	228.282943	622.557125	-281.418176	187.513811	270.170264	-374.546576	120.394292	264.292409	-324.620833	287.230757	162.384731	-403.773315	207.539506	528.986049	-416.732417	224.238818	445.876997	-397.323571	196.683681	361.742086	-388.279556	253.975110	448.986922	-371.584736	372.386450	138.819448	-347.797893	-202.909216	869.364775	-206.912418	-49.253325	84.057354	-413.840943	-48.752184	80.371595	-16.359627	
752	3.7600	511.444306	1295.427803	-51.479359	528.946924	1288.274503	-341.008565	506.311582	1364.174015	-197.911361	494.764271	1197.481886	-193.805510	533.339452	1054.824192	62.952225	716.958132	926.921675	-36.112326	501.027020	1037.999699	-449.974492	708.367897	931.176403	-393.656646	-31.462984	1155.153854	-215.221176	139.426367	1131.924215	-379.581783	100.065460	1142.234929	-53.599043	159.601203	1079.599467	-344.948287	130.959034	1098.448329	-85.837104	-3.833228	1198.875625	-193.273557	-2.764292	1189.993220	-253.729836	91.642461	1087.905831	-14.635984	103.891960	1042.946674	-410.512744	202.468567	1042.640811	-9.541351	292.301644	1028.348185	-14.449552	359.745147	974.126761	-13.226117	303.128348	1057.284884	-37.145855	427.999895	894.814138	-37.094752	418.729667	872.978959	-151.678333	356.044481	794.422659	-20.915292	310.435982	724.634082	-44.356447	234.988033	679.489125	-48.362559	328.175684	711.896460	-78.980284	165.243325	630.219103	-57.250475	101.348427	645.329348	-109.102701	285.793526	439.962173	-94.529837	200.423964	495.891669	-30.817846	128.300661	914.089298	-429.721839	180.539758	844.374890	-426.191756	214.240743	857.891062	-418.590613	190.835243	755.886936	-419.468242	212.587337	636.947590	-400.176734	223.222282	621.936317	-282.554697	179.880240	269.584460	-374.728290	113.096754	265.081518	-324.585977	277.224637	158.944892	-403.997728	199.508863	528.038935	-417.986882	216.411254	444.976413	-398.408309	188.983922	360.925698	-388.919695	246.595845	448.246381	-373.525074	362.010247	133.651760	-348.002819	-202.923418	869.476945	-207.154049	-49.257774	84.154042	-413.897868	-48.754208	80.458058	-16.378648	
753	3.7650	512.222800	1295.523504	-51.901297	529.804821	1287.441241	-340.587999	507.096364	1363.701312	-198.324318	494.766087	1197.070587	-193.299633	533.241688	1054.621988	62.230931	716.664004	927.558526	-36.294418	501.519991	1037.467678	-450.232188	708.941277	930.532110	-393.897049	-31.285816	1157.690355	-216.458093	139.778704	1133.480275	-380.556222	99.835369	1145.102507	-54.795163	159.027371	1080.508771	-346.372854	129.751336	1100.296197	-86.628944	-3.655691	1201.718401	-194.520767	-2.565454	1192.407101	-254.415846	91.604212	1093.239338	-15.828478	102.528821	1044.415735	-411.490289	202.666626	1048.621734	-10.086521	292.316696	1034.929561	-15.765548	360.205289	981.236330	-13.321223	302.972153	1064.042548	-38.498408	429.579441	903.350592	-38.588305	420.414833	881.045646	-153.425536	360.315241	801.355318	-22.018919	315.921168	730.606130	-45.012556	241.519677	683.862772	-48.432957	333.814652	717.968422	-79.351710	172.011487	632.216688	-57.332725	107.572014	645.752936	-109.024209	297.217576	445.168621	-94.814991	210.544855	498.979848	-30.909051	125.380156	914.909181	-431.049923	176.654567	844.345450	-428.111222	210.571855	857.486359	-420.628528	185.752589	755.846448	-421.704584	205.852568	636.392245	-401.558785	219.174985	621.508831	-283.677971	171.227754	269.276242	-374.771416	104.917475	265.810955	-324.412563	266.877998	156.346766	-404.106315	192.119389	527.524679	-419.735758	208.683554	444.470808	-399.311385	181.001214	360.520159	-389.385666	239.290394	447.499826	-374.924567	351.252564	129.674151	-348.181341	-203.022712	869.440730	-206.863561	-49.253321	84.211444	-413.920839	-48.732343	80.507488	-16.401227	
754	3.7700	512.991017	1295.623314	-52.189746	530.741931	1286.470362	-340.063802	507.862447	1363.121795	-198.707989	494.878177	1196.511796	-192.778568	533.116049	1054.246283	61.678825	716.319102	928.313215	-36.661904	502.040325	1036.936746	-450.682897	709.420320	929.747684	-394.224373	-31.129366	1160.204035	-217.448357	140.090298	1134.752216	-381.439188	99.744737	1147.779709	-55.977916	158.479792	1081.237592	-347.686103	128.761402	1102.140002	-87.537447	-3.818124	1204.155174	-195.285652	-2.049196	1194.426644	-255.298715	92.210556	1098.426946	-17.165856	101.144725	1045.789639	-412.304318	202.694382	1054.291598	-11.262795	292.416231	1040.788010	-17.150400	360.931876	987.678308	-14.226391	302.839521	1069.808370	-40.020444	430.711138	910.736206	-39.934762	421.711091	888.271086	-154.783732	364.204173	807.638740	-23.236372	321.004034	735.441070	-46.046522	247.401667	688.007318	-48.704045	339.232335	723.224662	-80.180073	178.741957	633.429213	-57.591469	113.660109	645.072432	-109.019859	308.673175	449.659785	-94.965314	220.763953	501.347896	-30.962975	122.761399	915.743400	-432.320006	173.132977	844.506748	-430.068763	207.489623	857.192338	-422.794055	181.116826	755.909084	-423.850578	199.901164	636.136246	-402.660786	215.996890	620.878106	-284.932706	161.801816	269.187856	-374.616724	95.919499	266.473205	-324.062598	256.146408	154.545655	-404.129008	185.275891	527.084428	-420.764776	201.099309	444.025307	-399.880911	172.618478	360.420489	-389.549634	232.079142	446.780905	-375.951665	340.214760	126.756255	-348.261988	-203.012639	869.534742	-206.944835	-49.258349	84.250824	-413.915985	-48.730391	80.532675	-16.416008	
755	3.7750	513.692239	1295.772349	-52.377209	531.735563	1285.511365	-339.657391	508.721432	1362.514889	-198.961794	495.008895	1195.999149	-192.328809	532.600169	1053.826287	61.061904	715.884798	929.071903	-37.079938	502.644994	1036.245329	-451.273459	709.900253	928.876227	-394.528741	-30.977147	1162.780030	-218.368712	140.390178	1135.737456	-382.283390	99.338632	1150.395235	-57.093076	158.030864	1081.865647	-348.991860	128.042631	1104.348110	-88.425090	-3.793982	1206.514445	-196.434012	-1.842392	1196.568555	-255.994591	93.036095	1102.849115	-18.141944	99.702318	1046.971970	-412.956940	202.717162	1059.215690	-12.424970	292.535834	1045.923647	-18.432007	360.539047	993.612959	-14.350916	302.829686	1074.903989	-41.433535	431.499419	917.400337	-41.187176	422.663600	894.941417	-156.678674	367.345351	813.152203	-24.476010	325.820767	739.742912	-46.773550	253.463417	690.670164	-48.873026	344.196426	728.032419	-80.612072	185.415506	633.755640	-57.861473	119.562109	643.360518	-109.252756	320.242883	453.724324	-95.093391	230.899982	502.913113	-31.045587	120.357099	916.475500	-433.510820	170.023655	844.703700	-431.975616	204.637609	857.034001	-424.802897	177.069396	756.017985	-425.744645	194.872576	635.930695	-403.280934	213.150832	620.638861	-286.125923	151.908257	269.576074	-374.223121	86.208466	267.321982	-323.581784	245.061997	153.660296	-404.038451	179.032790	527.016084	-421.511112	193.680615	443.833747	-400.259473	164.003997	360.680161	-389.538036	224.929772	446.109093	-376.620693	328.986644	124.974744	-348.304452	-202.998884	869.584342	-206.956088	-49.269493	84.272046	-413.923617	-48.702912	80.535691	-16.421089	
756	3.7800	514.191620	1295.825953	-52.542064	532.686761	1284.411893	-339.233364	509.581454	1361.804695	-199.205160	495.093211	1195.334234	-191.794037	531.960258	1053.324610	60.432189	715.335934	929.654964	-37.396669	503.225506	1035.715790	-451.906293	710.474723	928.320564	-394.918176	-31.036571	1165.096424	-219.107250	140.694723	1136.314572	-383.021160	99.131459	1152.947963	-58.684688	157.522175	1082.267201	-350.249038	126.606341	1105.836556	-89.613679	-3.900386	1208.873469	-197.439143	-1.644481	1198.416828	-256.796456	92.751235	1107.221480	-19.646936	98.244536	1048.003031	-413.590336	201.812718	1063.768283	-12.677347	292.727916	1050.192884	-19.597445	361.074059	997.785968	-16.138101	302.744359	1079.096620	-42.794749	432.164832	923.174074	-42.564891	423.363414	900.397720	-158.464850	370.195819	817.470349	-25.649087	330.054705	743.117005	-47.480321	258.945974	692.367798	-49.359251	348.756161	731.667815	-81.163300	191.897346	633.151050	-58.165619	125.729161	640.552650	-109.715536	331.724618	457.152416	-95.178304	240.985430	503.732336	-31.055951	118.127831	917.116873	-434.550652	167.213743	844.900418	-433.786451	202.111176	857.022890	-426.869367	173.554211	756.191786	-427.247529	190.964636	635.936931	-403.931120	211.487961	620.456433	-287.201789	141.627106	270.320888	-373.618841	76.033368	268.260941	-323.015442	233.883337	153.502776	-403.781805	173.472993	527.193809	-421.909680	186.538486	443.852182	-400.313921	155.332222	361.321855	-389.220539	217.896258	445.545246	-376.943845	317.649547	124.152032	-348.184474	-203.034969	869.554553	-206.829112	-49.282089	84.269780	-413.894117	-48.723828	80.519949	-16.401200	
